<mxfile host="app.diagrams.net" agent="Mozilla/5.0 (Macintosh; Intel Mac OS X 10_15_7) AppleWebKit/537.36 (KHTML, like Gecko) Chrome/130.0.0.0 Safari/537.36" version="24.8.4">
  <diagram name="Page-1" id="1JhQEQWC76Nr1By9qe7U">
    <mxGraphModel dx="2206" dy="1580" grid="1" gridSize="10" guides="1" tooltips="1" connect="1" arrows="1" fold="1" page="1" pageScale="1" pageWidth="1169" pageHeight="827" math="0" shadow="0">
      <root>
        <mxCell id="0" />
        <mxCell id="1" parent="0" />
        <mxCell id="o_0AbeNSkVmtxBrjeSQZ-1" value="" style="whiteSpace=wrap;html=1;aspect=fixed;fillColor=#292929;" vertex="1" parent="1">
          <mxGeometry x="40" y="120" width="920" height="920" as="geometry" />
        </mxCell>
        <mxCell id="o_0AbeNSkVmtxBrjeSQZ-2" value="" style="rounded=0;whiteSpace=wrap;html=1;" vertex="1" parent="1">
          <mxGeometry x="40" y="120" width="920" height="40" as="geometry" />
        </mxCell>
        <mxCell id="o_0AbeNSkVmtxBrjeSQZ-9" value="" style="rounded=0;whiteSpace=wrap;html=1;fillColor=#4D4D4D;" vertex="1" parent="1">
          <mxGeometry x="40" y="570" width="920" height="1140" as="geometry" />
        </mxCell>
        <mxCell id="o_0AbeNSkVmtxBrjeSQZ-13" value="" style="rounded=0;whiteSpace=wrap;html=1;fillColor=#4D4D4D;" vertex="1" parent="1">
          <mxGeometry x="37.64" y="1654" width="920" height="50" as="geometry" />
        </mxCell>
        <mxCell id="o_0AbeNSkVmtxBrjeSQZ-14" value="About Us" style="rounded=1;whiteSpace=wrap;html=1;" vertex="1" parent="1">
          <mxGeometry x="37.64" y="1656.5" width="118.82" height="45" as="geometry" />
        </mxCell>
        <mxCell id="o_0AbeNSkVmtxBrjeSQZ-15" value="Ordering Info" style="rounded=1;whiteSpace=wrap;html=1;" vertex="1" parent="1">
          <mxGeometry x="167.64" y="1656.5" width="118.82" height="45" as="geometry" />
        </mxCell>
        <mxCell id="o_0AbeNSkVmtxBrjeSQZ-16" value="Privacy Info" style="rounded=1;whiteSpace=wrap;html=1;" vertex="1" parent="1">
          <mxGeometry x="297.64" y="1656.5" width="118.82" height="45" as="geometry" />
        </mxCell>
        <mxCell id="o_0AbeNSkVmtxBrjeSQZ-17" value="Contact us" style="rounded=1;whiteSpace=wrap;html=1;" vertex="1" parent="1">
          <mxGeometry x="426.46" y="1656.5" width="118.82" height="45" as="geometry" />
        </mxCell>
        <mxCell id="o_0AbeNSkVmtxBrjeSQZ-18" value="" style="rounded=0;whiteSpace=wrap;html=1;" vertex="1" parent="1">
          <mxGeometry x="636.46" y="1654" width="320" height="50" as="geometry" />
        </mxCell>
        <mxCell id="o_0AbeNSkVmtxBrjeSQZ-19" value="FB" style="ellipse;whiteSpace=wrap;html=1;" vertex="1" parent="1">
          <mxGeometry x="646.46" y="1659" width="50" height="40" as="geometry" />
        </mxCell>
        <mxCell id="o_0AbeNSkVmtxBrjeSQZ-20" value="Insta" style="ellipse;whiteSpace=wrap;html=1;" vertex="1" parent="1">
          <mxGeometry x="706.46" y="1659" width="50" height="40" as="geometry" />
        </mxCell>
        <mxCell id="o_0AbeNSkVmtxBrjeSQZ-21" value="TikTok" style="ellipse;whiteSpace=wrap;html=1;" vertex="1" parent="1">
          <mxGeometry x="766.46" y="1659" width="50" height="40" as="geometry" />
        </mxCell>
        <mxCell id="o_0AbeNSkVmtxBrjeSQZ-22" value="X" style="ellipse;whiteSpace=wrap;html=1;" vertex="1" parent="1">
          <mxGeometry x="826.46" y="1659" width="50" height="40" as="geometry" />
        </mxCell>
        <mxCell id="o_0AbeNSkVmtxBrjeSQZ-23" value="Email" style="ellipse;whiteSpace=wrap;html=1;" vertex="1" parent="1">
          <mxGeometry x="886.46" y="1661.5" width="50" height="40" as="geometry" />
        </mxCell>
        <mxCell id="o_0AbeNSkVmtxBrjeSQZ-24" value="" style="rounded=0;whiteSpace=wrap;html=1;" vertex="1" parent="1">
          <mxGeometry x="41.18" y="160" width="920" height="60" as="geometry" />
        </mxCell>
        <mxCell id="o_0AbeNSkVmtxBrjeSQZ-25" value="Bag (0)" style="ellipse;whiteSpace=wrap;html=1;" vertex="1" parent="1">
          <mxGeometry x="876.18" y="165" width="75" height="50" as="geometry" />
        </mxCell>
        <mxCell id="o_0AbeNSkVmtxBrjeSQZ-26" value="Wishlist" style="ellipse;whiteSpace=wrap;html=1;" vertex="1" parent="1">
          <mxGeometry x="796.18" y="165" width="75" height="50" as="geometry" />
        </mxCell>
        <mxCell id="o_0AbeNSkVmtxBrjeSQZ-27" value="Search Products" style="rounded=0;whiteSpace=wrap;html=1;" vertex="1" parent="1">
          <mxGeometry x="378.39000000000004" y="167" width="245.59" height="43" as="geometry" />
        </mxCell>
        <mxCell id="o_0AbeNSkVmtxBrjeSQZ-28" value="Search" style="rounded=0;whiteSpace=wrap;html=1;" vertex="1" parent="1">
          <mxGeometry x="631.18" y="174.25" width="70" height="31.5" as="geometry" />
        </mxCell>
        <mxCell id="o_0AbeNSkVmtxBrjeSQZ-31" value="Logo" style="ellipse;whiteSpace=wrap;html=1;" vertex="1" parent="1">
          <mxGeometry x="42.35999999999995" y="165" width="75" height="50" as="geometry" />
        </mxCell>
        <mxCell id="o_0AbeNSkVmtxBrjeSQZ-32" value="Login/Sign Up" style="rounded=0;whiteSpace=wrap;html=1;" vertex="1" parent="1">
          <mxGeometry x="861.18" y="125" width="90" height="30" as="geometry" />
        </mxCell>
        <mxCell id="o_0AbeNSkVmtxBrjeSQZ-33" value="News Carousel" style="rounded=0;whiteSpace=wrap;html=1;" vertex="1" parent="1">
          <mxGeometry x="40" y="220" width="920" height="40" as="geometry" />
        </mxCell>
        <mxCell id="o_0AbeNSkVmtxBrjeSQZ-34" value="" style="shape=image;verticalLabelPosition=bottom;labelBackgroundColor=default;verticalAlign=top;aspect=fixed;imageAspect=0;image=data:image/png,iVBORw0KGgoAAAANSUhEUgAAAfQAAAH0CAYAAADL1t+KAAAACXBIWXMAAA7EAAAOxAGVKw4bAAAEUmlUWHRYTUw6Y29tLmFkb2JlLnhtcAAAAAAAPD94cGFja2V0IGJlZ2luPSfvu78nIGlkPSdXNU0wTXBDZWhpSHpyZVN6TlRjemtjOWQnPz4KPHg6eG1wbWV0YSB4bWxuczp4PSdhZG9iZTpuczptZXRhLyc+CjxyZGY6UkRGIHhtbG5zOnJkZj0naHR0cDovL3d3dy53My5vcmcvMTk5OS8wMi8yMi1yZGYtc3ludGF4LW5zIyc+CgogPHJkZjpEZXNjcmlwdGlvbiByZGY6YWJvdXQ9JycKICB4bWxuczpBdHRyaWI9J2h0dHA6Ly9ucy5hdHRyaWJ1dGlvbi5jb20vYWRzLzEuMC8nPgogIDxBdHRyaWI6QWRzPgogICA8cmRmOlNlcT4KICAgIDxyZGY6bGkgcmRmOnBhcnNlVHlwZT0nUmVzb3VyY2UnPgogICAgIDxBdHRyaWI6Q3JlYXRlZD4yMDI0LTExLTExPC9BdHRyaWI6Q3JlYXRlZD4KICAgICA8QXR0cmliOkV4dElkPjE8L0F0dHJpYjpFeHRJZD4KICAgICA8QXR0cmliOkZiSWQ+NTI1MjY1OTE0MTc5NTgwPC9BdHRyaWI6RmJJZD4KICAgICA8QXR0cmliOlRvdWNoVHlwZT4yPC9BdHRyaWI6VG91Y2hUeXBlPgogICAgPC9yZGY6bGk+CiAgIDwvcmRmOlNlcT4KICA8L0F0dHJpYjpBZHM+CiA8L3JkZjpEZXNjcmlwdGlvbj4KCiA8cmRmOkRlc2NyaXB0aW9uIHJkZjphYm91dD0nJwogIHhtbG5zOmRjPSdodHRwOi8vcHVybC5vcmcvZGMvZWxlbWVudHMvMS4xLyc+CiAgPGRjOnRpdGxlPgogICA8cmRmOkFsdD4KICAgIDxyZGY6bGkgeG1sOmxhbmc9J3gtZGVmYXVsdCc+TW9kYVBsdWcgLSAxPC9yZGY6bGk+CiAgIDwvcmRmOkFsdD4KICA8L2RjOnRpdGxlPgogPC9yZGY6RGVzY3JpcHRpb24+CgogPHJkZjpEZXNjcmlwdGlvbiByZGY6YWJvdXQ9JycKICB4bWxuczpwZGY9J2h0dHA6Ly9ucy5hZG9iZS5jb20vcGRmLzEuMy8nPgogIDxwZGY6QXV0aG9yPm5nd2VueWE4OTA8L3BkZjpBdXRob3I+CiA8L3JkZjpEZXNjcmlwdGlvbj4KCiA8cmRmOkRlc2NyaXB0aW9uIHJkZjphYm91dD0nJwogIHhtbG5zOnhtcD0naHR0cDovL25zLmFkb2JlLmNvbS94YXAvMS4wLyc+CiAgPHhtcDpDcmVhdG9yVG9vbD5DYW52YSAoUmVuZGVyZXIpPC94bXA6Q3JlYXRvclRvb2w+CiA8L3JkZjpEZXNjcmlwdGlvbj4KPC9yZGY6UkRGPgo8L3g6eG1wbWV0YT4KPD94cGFja2V0IGVuZD0ncic/PrwrEM4AAFnHSURBVHic7NXBaVRRAEDR73fcDEgUUoUdZJtas0sfkhamAzErkxgImUGL8MHD+86p4O7uh9Pp9GcDAP5r++wAAODfGToABBg6AAQYOgAEGDoABBg6AAQYOgAEGDoABBg6AAQYOgAEGDoABBg6AAQYOgAEGDoABBg6AAQYOgAEGDoABBg6AAQYOgAEGDoABBg6AAQYOgAEGDoABBg6AAQYOgAEGDoABBg6AAQYOgAEGDoABBg6AAQYOgAEGDoABBg6AAQYOgAEGDoABBg6AAQYOgAEGDoABBg6AAQYOgAEGDoABBg6AAQYOgAEGDoABBg6AAQYOgAEGDoABBg6AAQYOgAEGDoABBg6AAQYOgAEGDoABBg6AAQYOgAEGDoABBg6AAQYOgAEGDoABBg6AAQYOgAEGDoABBg6AAQYOgAEGDoABBg6AAQYOgAEGDoABBg6AAQYOgAEGDoABBg6AAQYOgAEGDoABBg6AAQYOgAEGDoABBg6AAQYOgAEGDoABBg6AAQYOgAEGDoABBg6AAQYOgAEGDoABBg6AAQYOgAEGDoABBg6AAQYOgAEGDoABBg6AAQYOgAEGDoABBg6AAQYOgAEGDoABBg6AAQYOgAEGDoABBg6AAQYOgAEGDoABBg6AAQYOgAEGDoABBg6AAQYOgAEGDoABBg6AAQYOgAEGDoABBg6AAQYOgAEGDoABBg6AAQYOgAEGDoABBg6AAQYOgAEGDoABBg6AAQYOgAEGDoABBg6AAQYOgAEGDoABBg6AAQYOgAEGDoABBg6AAQYOgAEGDoABBg6AAQYOgAEGDoABBg6AAQYOgAEGDoABBg6AAQYOgAEGDoABBg6AAQYOgAEGDoABBg6AAQYOgAEGDoABBg6AAQYOgAEGDoABBg6AAQYOgAEGDoABBg6AAQYOrCc/fIyOwGGM3RgOfvl9+wEGM7QgeUc3n/MToDhDB1Yzsfzr9kJMJyhA8t5O37bjk/fZ2fAUIYOLOf86Xo7Pj/MzoChDB1Y0uH9cdsvT7MzYBhDB5b0+vlmu3q8n50Bwxg6sKSXL7fb1593szNgmL8AAAD//+ydd3xTZRfHv1lN05Wke7ORjYqAIIoMZTjBAb6KAzf4OnDhXq8bt+BExYUCijLK3rIEZENbKN1t2iZNM9o0+/2jgIxmtE0n9/v59FOa3Ps854bce55xzu8IDl1AQOCcxCUJwxbcngjdn81tioBAQBAcuoCAwDmLWXUF0YUfNLcZAgIBQXDoAgIC5yymqKuR2oqJLP6suU0REGgwgkMXEBAIGBZbVXObUCeckggqVcOJKv4cmTW3uc0REGgQgkMXEBAIGIqgEPLLsprbjDphjLoOkauaxKzHmtsUAYEGITh0AQGBgCISidEZS5rbDL8xK4fhlEYirzpIdMGM5jZHQKDeCA5dQEAgoCRHd+BQ/q7mNsNv3GI5+rg7AYjUfEWoYX2z2iMgUF8Ehy4gIBBw+nW+lN82f9XcZvhNRextuMQhACQcm0ZQdU7zGiQgUA8Ehy4gIBBwQuThRIbFsPXwquY2xS9cklAq4m4HamqlJ2fegcxW1MxWCQjUDcGhCwgINArD+l7Pmj2/k1V8sLlN8YvyhPtxStUASG0akjMmIbVrm9kqAQH/ERy6gIBAozHl6lf58I/pZBUfam5TfOISh6BNmnbyb5m1gJT0iUgEpy7QShAcuoCAQKMRGR7DPaOe5X+/PMihvJYfKGeIuRmr4ryTf8us+aSm34LUVtyMVgkI+Ifg0AUEBBqVvh0HceWFN/H2/EfYk7W5uc3xSUn7N077W2bNo92h61GYdzeTRQIC/iE4dAEBgUbnlqEP0S6uK28veJRNB9Oa2xyvVIf2whAz4bTXJI4KUtInoiyb10xWCQj4RnDoAgICTcK0ce+iDI1k1pKXWLRtTnOb45Wy5CdwyKLPej0u9wXic55pBosEBHwjOHQBAYEmQRUaxePja5TY5m74lLfmP0xFpa6ZraodlyQCTYfaVeMitL/T7tB4ZNaCJrZKQMA7kv/+978vN7cRAgIC5wZR4XGEBoezN3srJfoCNuxbRHxkKklRHZrbtLOwy1MQu6pRmP856z2pvQyl7jdsii7Yglue7QLnJoJDFxAQaFK6JPZGo88nv+woNoeVbemrKNAeo0dqP+QyRXObdxpVEZcQYtyMzKY56z2R2054+VJk1jws4f1xi1uW7QLnHqKMjAx3cxshICBw7vHJoufYcnjlyb/DFEruGvkkg3uMakarzkbiNJJ6aJzXJXaXJILSlGcwRo9vQssEBE5HcOgCAgLNxod/TGd7xprTXkuO7sj1g+7ikh6jm8mqswmqziL18ATETpPX48zqUWja/w+XJKKJLBMQ+BfBoQsICDQrHy96tlbN91hlItcPnsywPtc1g1VnE1y5j+SM2xG7LF6PcwTFU5byLCZ1y1ppEGj7CA5dQECg2flm5dus2r2g1vciQiK5ZuAkhva+mnCFqoktO53gyj0kZ9zp06kDVCovozT1ZezypCawTEBAcOgCAgIthIVbZjNv0+dej7moy+Vc3uca+nW+rImsOhuFeTdJmZMRu6p8HusSh1CW+hyG6BubwDKBcx3BoQsICLQY1u9bxBfLXvN5XGhwBIO6X8HQXlfTObFXE1h2OsGVe0jOnIzYWenX8ZWq4ZS0exWHLKaRLRM4lxEcuoCAQIvicP5u3v/9CczVRr+OT4xqT/8ul9Onw8X0SO3XyNb9i7zqMMmZk5E4yv063i0ORpdwP+UJUxrZMoFzFcGhCwgItDjKTaXM+O1xskvS63SeIiiEnu0G0KfDQC7qMhR1WOPOiKX2UpIyJyO3HPH7HFtwJ4o7zsAa0qMRLRM4FxEcuoCAQIvly2X/Y92+P+t9fkpMZ/q0H0iv9gPomXoRMmlQAK2rQeSyEJf7MhG6P+p0njbpUcoTHgy4PQLnLoJDFxAQaNFsz1jDF8tew2L1b7/aGz1TL6JzYi86xnenY0J3oiMSAmBhDeHly4jLfcFnrvqpVIf2prjjB9jlKQGzQ+DcRXDoAgICLR6dsYRPFj9PRsGegLYbFRFH7/YD6d1+IH06XExYcMMEYWS2IhKP3FenJXi3OJjSlOkYYm5pUN8CAoJDFxAQaDVsPLCEuRtmUmHWNkr78eoUOsR3o2N8Dzon9qRb8gV1bkPkqiYx61FCDevqdF6l8lI0HWbglDZvrr1A60Vw6AICAq0Km8PKom1zWLR9DnaHrVH7CpLK6ZHaj17t+tOr/UDaxXbx+1xV6c/E5r1Sp/6csmg0Hd6mMmJIXU0VEBAcuoCAQOukwqxl7oZP2XhgaZP1Ga5Q0at9fy7sdCnnd7rE5xK9zJpLwrEnCK7cV6d+9HF3UpbyTENMFTgHERy6gEArwG4XIZMJt2ptFOqy+WHtB+w9trXJ++7dfgAXd7uCgecNJ9SLc1dq5xNd8L7fOetQEzBX2OVrYQlewG8Ehy4g0EooKJCRnGxvbjNaLLmlmazYNY8th1dgtVc3ef99OlzMoG5XMOC84YTIw856X+w0El34IarSn/xu0xEUT2GXr7AqugbSVIE2iuDQBQRaEQcPyklJsRMR4WpuU1osFmslGw8uZdmOuZRUeK5h3pj07TiIi88bycXdRhIcFHLae3LLEeJyXyDYvNuvtlySMAq6fkt1aJ/GMFWgDSE4dAGBVsbu3cFERjpp106YrfvicP4/rNv7J5sOpjWbDf06X8Zlva5iwHnDT3tdXfINMflv+9WGSxxCYddvsITVPepe4NxBcOgCAq2Q3buDAREXXOC7jKcAVFnN7Mhcz9b0lc2y1w4QGR7L8L7jGHH+OFShUQAEWY4Qn/OsX0FzLrGCwq6zsYQ1nV69QOtCcOgCAq2U3FwZa9eGMXFiBQqFcBv7S5XVzN8Za9mavop92duaxYbL+1zLuMF3E6tMBECpXUB0wQwkDr3X89xiBfnnzaE6tG9TmCnQyhAcuoBAK8ZsFvPOOzHcdJOB3r2bPhCstVNZbWRb+hr2HNvCwbwdAZGXrQtDe1/N9YMmE69OQew0ElMwA2XZr17PcYkVFJz3vbCnLnAWgkMXEGgDfPBBNE4nPPFE4yionSscKdrPwdydHC06wDHNYfTmsibpd8xFt3DjkPsIkYcRXLmHuJznvcrHuiTh5Hebi1Xhv9CNQNtHcOgCAm2EjRtD+eijKO65R8+YMf4XCBHwjLFKT2bhPvZlb+NQ3i4KddmN1ldocAQ3DrmX0f0mAhCp+Zqooo8Ruay1Hu+URZPXbR52eVKj2STQuhAcuoBAG6KoSMrUqTUP+Mcf1zJkSNMuIbd1tEYN6fm7ySnJ4GjxAXJKMgKe894xvjtTrn6FpKgOyGxFxGVPJ8S0vdZjbcEdye3xO26xIqA2CLROBIcuINAGefPNGL77Tk2/fhYefVTHgAFVzW1SmyW39AjZmsNkaQ6RrUknq/hgQNodP/gebrr0fgAitL8Rm/9mraVZzepRFHX6OCB9CrRuBIcuINBG2bFDwaOPJqDVSmnf3sb48UZuuMFIdLSjuU1r8xwtOkCW5lDN7+KDFJfn1aud9nHn8ej1bxGnSkZqLyMu53lCDevPOq409QUqYm9roNUCrR3BoQsItGGMRjEvvBDH8uXhJ18bMqSSG24wcvnllYSEtH3FOatVRHW1GIul5ndVVc1vq1VEVdW/f594324XIZe7UCjcBAe7CQ6u+bdC4SI01IVa7USlchIe7v9nZ7FWklG4lz1Zm/knaxNlhmK/z1UEhXDP6OcY3P1KANQl3xKT/9Zpx7jFcnJ6LsEuT/W7XYG2h+DQBQTOAZYvD+eVV2IpL5ec9nr//hYuvbSSIUOq6NmzdaW9FRVJKSyUUVQko7hYilYrpbxcgl4vQaer+V1aKm1UG6KinKjVTiIjHXTrZqVLFxvdu1t9phAW6rLZnbWZ3Vl/cShvl199De97PfeOfg6AEONmErMeOW0J3hJ2Afndfqn/xQi0egSHLiBwjmA0innrrRh++01Z6/tKpZN+/Sz06mWle/dquna1NXkxGK1Wgl4vRa+XoNVKTnPQNf+WUlAgpahI1qR21YcTDr5Xr2ouvriKbt1qj1a3WCvZl7ONf45uYkfmOiw2z/EO5yX35Ynx7xGmUBJUnUNy5l1IbUUn3y9p9wqGmIkBvxaB1oHg0AUEzjH+/lvB//4XS0aG3OexCoWLHj2sREc7iI52EhPjICrKSXS0k7Aw/5ec3W5Oc8w1v0933BUVEt8NtWKUSieDBlVx8cVVDBpkoX17W63H7cveyqYDafx1aHmt78coE3jqxg9Jju6IxKEnOfNu5FU1gXhOqZrs3qtxSc6u9ibQ9hEcuoDAOcqKFeG8/34UOTlBzW3KOUliop1Ro8xce62RHj3Onr2bq41s3L+EVbsXoNHnn/aeIiiEZ27+lC5JvRG7LCQeuf9kaps+bjJlKU83yTUItCwEhy4gcI7zxx8RfPllJFlZgmNvLjp2tHHjjQbGjzeiVjvPen9/znZW7JrHrqMbT76mCArhhVs+p0N8dwCSM+8ixLgFgGN9N+GQxTaN8QItBsGhCwgIALB5cwhffx3Jli0hvg8WaDQuvbSSm24yMGqU+az3Mgv38dXy/1GgrVGsC5GH8fzEWXSI747YZSHl8M3ILZnCLP0cRXDoAgICp3HkiJxfflHyxx8RmM3i5jbnnCUpyc6995Zzyy2Gs95L2/Ez8zZ9htVejUIeyiu3ziYlphNSeyntDl6H2GXhWJ8NOKW1B0AKtE0Ehy4gIOCRJUvCmTdPyfbtwqy9uYiOdnDvvXomTqwgOPjfx3W5qZSvV7zJ7qy/iAyP4Y07fkQZGklw5R5SD09Am/QI5QlTmtFygaZGcOgCAgI+yc+X8euvNbP2srLGze1urURGnshJd6JQ/CtG8+9vFyLR6efodBKKimpy6QsLpVRVeV4RiYhwcuedFUyapCci4t8Mgy2HV/LV8teJUyXxym2zkcsUqEvmoNZ8xbG+fzXW5Qq0QASHLiAgUCf++iuUv/4KYevWENLTfae+tXbCwlwkJNhJSnKc9js+3kFkZI0DV6nODmSrDxUVEgoL/xXMOXxYzvbtIRQX/zuIiohw8cgjWm67reLka6WGImb89jiq0EienTATgNRD49En3IdJPTogtgm0fASHLiAgUG8MBglbt4awbZuCLVtCyM1tfZHySUk1Tjouzk5ysoO4OAcpKXZiY2t+KxTNL4+bny/j779D2LAhhI0bw7BYRHTpYuXFF0sZMMBy8riP/nwGVWg0d4x8HLklg5i8Nyg4b04zWi7QlAgOXUBAIGAUFck4cEBOfr6M/HwZBQUy8vJkzeboY2Icx521g/h4OwkJjuM/Nf+OjW2dhWrWrg1j5cow0tLCGTHCzNNPlxEfX3MtXy1/nb4dBzOg6zDicl9Am/Q4TqmqmS0WaAoEhy4gINAkFBVJKSiQkZ8fdNLhl5ZKAJHPc8/GTUSEC5WqZrlbra75t1JZo2IXF+cgMbFpZWubg4oKCT/9pGLBgghuusnAlCnlACzcMpuLugylg0pFiHErxqhr6tSuIiMDkd3751fVq1e97RZoHFqVQ283fTrynBwKp0+n8vzzm9uck4Tt2kXiu+9iTU0l9513mtscgXqQ/MYbiGw2Su65B1tycnObIyBQZ376ScXy5WG8+GIZXbpY+XXjLK4deAfRlu1UqobXqa2ODz5IYUkJFtfZ2w1ikYiucjlHv/0Wl0IRKPMbDXl+PrGzZ+OSyyl85pnmNqdRaXXhqmtNJoZ+9hk5776LMyKiuc1BqtMRP3Mmiw0GrhQ3bs6uPDeXII0GmUZDUHExUp0OR2Qktvh47PHx2BISsCUl4ZY1TuGK0D17UGRm1ukcp0KBKywMZ1gYDqUSW0pKi3sIRGzaxNHt29lrsXBtUhIl997bKP1Ez5tXp+PdYjHOsDBcYWE4IiKwduyIM6zhGt1BRUVE/OU7+tkwdCj2uLgG9+cJkd1O1MKFPo+r6tmTqp4969S2uKqKyCVLfB5nGjgQa7t2dWrbH0IOHkSq1SI1GJBUVCCtqEBiMOAOCsIZFoYzPBynSoU1JQVbYmJAPudbb63gxhsNzJ+vJCsriAmjp7Bo2xxuPP9yxE4TLkm470ZOYVJuLpvMZ4vbREgkGPr0Qb14cb3WVvxBP3ZsQL7rAKq0NBZs2UJfhYKYzZsxXXJJQNptibQ6h/6FTocTGDxzZosYbSV8/DELi4r4Sa/nykZoP2T/flQrVyLZuZN9ZjP/WCxkW61UOJ2YXS5CxWJUEgntg4K4ICSEC0JDcV14IRWjRlHZpw9n5ck0xJZ9+zD+8Qfp1f6V2RSJRChEIiIkEsLFYuJkMkLFYpwREVhTUzENGoR5wACc4XV70AQa9dKlvFBWxubKSv6zaRPaiRMDbpPYYiHy999ZazJhd/u3KCYViVBKJKglEqKlUpIlEmxJSVT16oV5wIA6O7kTBBUVIVuwgC21PKxPMCQsDFn37o3q0MU2G5G//84akwmHh8+kp0KB4pZb6u7Qj3/eK4xGj8f0Dw1FnpAQMIcenJlJxKZNhG/bRrlez16LhYPV1eTabJicTipdLuTH/08jJBLaBQXRW6Ggd3AwQRERmPv3xzR4cM1Sdj3vW7nczW23VWA2i9m9W8GAztezu/QI58fL6uzQPWF0Opmr1xMzZw5OP7/L/jIoNBTxxRcHzJlLTCbC/vqLN0tKGBIayidLlggOvSXhcru5Ny+PXbt2oVq5koorG8ON+kfUggVo9+9nSn4+g0NDoZblqfogrqpCuW4dEatWsSYzk1/0ehYZDBicvlNjwsRirsnJYcK6dYzu1AnjqFEYhw/HGRoaENv+NBh4pKCgXueKgc5yOT2Cg7koM5Ord+ygr0JBZd++lN9wA5auXQNiY11QZGZiPHqUn/V6qlwulpWVcfGaNZRff32j9DchJweto36BWN2CgxmYm8vQffuYsGwZcXFxVIwdi37MmDq3lWW1Mjory+P7h7t3p6nqdd2Qne3xuz07NZXrGtC2t2tc16UL3RrQ9gnUaWmoli9HW1jI5+XlpBmNbDab8fdpIBOJuDg0lKuysrhm2TLOi43FMGwYhuHD6z2gCgtzccEFFnS6SEKl7TDZqgkOYFzif3JyAtfYcYaEhbGud2/y7rorYG0qV68mTavl8PGB1etHjhB85AjVXboErI+WRKtz6AC5NhtTCgr45ccfqerdG1tCQpPboMjMRDV/PhPy8ig98YAOwJJ7yP79JHz8MUsKCnhNo2FXlefayLVhdrmYq9czV6+nb3Exzx45wg0LF6KZOpXKfv0abF9DcAGZViuZVit/GAw8X1xMV7mcu0tKeHD3bqJ79KD07ruxpqQ0mU2qpUv5RKej6vhgbKZWy5i0NPTXXINb0rLKeaZXV5NeXc2c8nKmFxUxWaNhukZD4sGDaB56CFdwcGA7DPDsq94EaKBcKw24Rml5OQmffELxnj08XVLCXL2e6nrYane72WQ2s8lsZnpREZfn5/NwXh7X/fknuttvRz92bL1tjIpyEkUMOoOJAH87AkqQSMSnycmUT5yIIzIyYO2qly1jplYLQJXLxdc6HQ8tWULxY48FrI+WROsSaj5lGWqeXs+3xcUkfPRRk5shtlhI+PBD3iopYY3J9O8bDXwARv3+O5KXX2b83r1cf+xYnZ35mey1WJiQk8NV+/fjeP11on/5pUHtNQaZVitPFxXR5eBBZm7cSOJzzxG+fXuT9C3V6Qjevp0vj9/wAMuNRg6XlhK+dWuT2FBfSh0O3iopYUBGBns3bCDlhReQVFY2t1nnDGHbt5P8+ON8uH49fdPT+Vanq5czr431ZjPjs7M5XF2NQxWYdLMoZfNua/niybg4zuvdm4pRowLWZsSmTRwuLT1t2+ULrZbg7duR6nQB66cl0boc+hlMKywkPyOD6J9/btJ+42fN4u/8fF7RaE5/o54OXVxZSfIbb/DP7NlckJ7OIsPZxRgawgqjkX4ZGWyaM4eUl19GcuogpIVQ4nDwZGEhIw8epPKtt4ieO7fR+1QvW8Z8vZ5cm+2012eWlaFatqzR+w8EmVYrw44cYcWBAyS9/rrPVCOBhiGy24n74gsUM2Zw7YEDPFtUhLkRVhD6hYTQIzwcc//+AW/bH5zh4YQ3cpDvCboHB/NcXByaBx4IaMyPevFiZpaVnfZars3GfL0edSu5v+tK63LoZzhMg9PJ5Lw8IhYtqnP0dX1Rrl2Lc9s27szN9Tu4ySsuFymvvcZv69dz7bFjlNRzf9UXOoeDG7Oz+favv0h55RVEZzixlsJGs5lBmZkc/Oknkl99tdFmnWKrFeXq1cw644YH+Km8nMqMDOTZ2Y3Sd6Cxu93clpPDP/v3t8hVmLZE4gcfUL1qFUOPHPEacNdQblKpMPfv32gZK76wdO/OrQFc+vbGp8nJWMaPD2i6qCIzE/OxY/xUXn7We7PKyohYt65NDn5bl0OvhU1mM29oNCR8+CHiBi5R+0JWUkLMnDk8VFDAEas1IG3Gfv89f+zezZ15eQFbsvOEw+1man4+3+zZQ2IzbFX4i9bhYGxWFhu2bSPh/fcbpY+IDRvYrtOxuZYBg+n4Xlvkn382St+Ngcnl4u68PEKXLEF25sqRQEAI37wZdu5k/LFj7LdYfJ/QAG5WqzE2YzS2YeRIJiQnMyMpCUUjztTvjori0s6d0U6cGNB2VUuX8rVOh6mWZ+rmykr+Li1FuW5dQPtsCbTKoLgz+Z9GwxXh4fSaPZvi//63UfoQOZ0kvv8+3xcX82Mto776EL5tGwcWLGByXh4uP2f75ysUDAgNpUNQEBESCWank0K7nZ1VVWyrrPQrsvbhggKS165lcEpKQG+kYLGYQSG1l9m0uN3k2mwU+zkqNrtc/Ccnh7+Cgohetw7DsGEBsxO3G/WSJcw6Ze/8TL7Qapn2999IKyoCto/pi45yOVFnBOK5qVmJKrDbaxX5OJX06mq+0GqZPGcOhU8/3YiWnntIKyqImz2bO/Lz2VLHVSOVREKyTIZaKiVCLMboclFst3PUw6TgsrAw2qnVHG3GIFZrSgoFL73EI2+/zfVKJV/rdOyoqsLkdOLvumS+3Y7Gy/2eKJPxdmIiJffdFxijjyPV6VBs386XXvbJZ2m1zF6+vFmzpBqDNuHQ7W43k/Py+HvTJsL79cM0eHDA+4j+6SdyMzN5tJ4pW2cSVFiI4pNPuCMv72SEtSdkIhGTIiOZFhvLefHxWDt0wKFS4VQqkZhMSAwG5Pn5FOXnM0ur5bOyslpHpic48Xntnj+f8HbtMA0aFJBripZIWNulC5ZuZycDSUwmpFot+SYTy4xGfiwvr3V2fCoVTic3Z2ezfc4czP36BUxIKHTPHkoLC5mn13s8JttmY6FOx8i0NLT/+U9A+vXF07Gx3BcdXet7VS4Xy41Gni8u5rAXHYBPy8r47+7dSPV6HGp1Y5l6zhH71Vf8UVTk92B+QEgId0RFMTg0lD4KBcjlOJXKmntWr0em1VLmcPB3VRXrTCaWGo0n9R1uVKkwDRzYmJfjF9bUVI7NnIl62TJe2rQJWUmJ31tgBqeTvunpXo95NykJ2YgR6Oqpp+AJ9fLl/K7Xc8zLKuo8vZ43c3MJ3bOnRamONpQ24dChZnYyraCAL776Ckv37gF9mIXu3Uvo0qVclZvrVy64PyR+8AH/zcnx+qUD6BEczLft2tEvIQHduHEcG+25FGLEpk289ttv3Jeby115ebWqPJ2gzOHgwfx8/vzss5rPK4Cz0PyXX/b4XvDRo0zYsoV7N25kZVERDxUUeP0MDlVX835ODtO+/pqiadMCYp86LY03tFpsPlZFZmq13LBmDbqbbmqyvczycePQTphw2mvSigqkWi2jfv+dwdu3Mzgzk2wPMRCZVivp1dWoDh7EOGRIU5jc5gnOykK8YwePFhb6PLaPQsGHyckMjYurEYnp0YPsHj1wKpWnHSey21FkZnJxRgYj//6bGTk5bKmsZFZZWY1Db0HiJ/oxY/zWOhDZ7bSfNo3nd+8+K9j0VK6KiGBCSgrZt98eKDNP9h+xdu3JVDVP2NxuPtdqeTYtrU059Fa/h34qX+t0/HEilS1AObQSo5H4Tz/lheJitgYoQCv0n384dOQIX/v40l0aFsamrl3pecklZH/4IRVenDmA8dJLyfnwQ6LHjmVV585M8DGoWWwwsLSsDNXKlXW+hvpS3bkzZbffTs4HHzD4uuvYcd55XOJD9GZGSQmGzZtRZGQ0uH+ZRoNo3z5m+5G2stFsZldZGcr16xvcb0NwqFRUd+5M4VNPETZ4MC/60F1YazYTlJ/fRNa1faJ+/51vdDryfQSSToqMZEvXrvR68EGOzp5Nyd13Yxo06CxnDuCWyajq2RPd+PHkvvUWOe+/T9e77uKbIUOIiY2ttwpgcxM1fz47c3JqDTY9QYREwicpKZTdcQeuAAlenUC5bh3/lJWx0ctk5gSzdTpEe/e2qZiTNuXQAabk51O+f3/AApoSPvqIdUVFzCgpCUh7AKoVK3hdo/G6390zOJg/O3ZEdO21FD79dJ30z0vuvRfD5Mn80K4dI31ImL5eUoJy1Sq/2w4UzvBwSu6/H8fdd7O0Uyd6e7k+k8vFl1otERs3NrjfyMWL+bm83Ove3qm0tBQ27cSJTFSpUHkRvSmw2ZBWVDShVW0XicFA8M6dfOTFQQFcq1TyTbdu6F5/Hf1VV9W5H1tiIuXjx5MzYwbFDz9cX3OblaCiIsKWLOGhggKvz7aX4uOJ69cP46WXBtwG1fLlfOrj/+oEGrudn8vLiVy8OOB2NBdtzqGXOBzcm5dH5Pz5yHNzG9SWeulSKvfurQlaC5B9QcXFaP7+m9+9PHCDRCJ+aN8eyeWXUzZpUr36qRg1CuPNN/NDu3bESD3vrGyrrGRDURERmzbVq59aqUO0fsXo0biuu4657dsT7CWa9hudjuCtWxukGiYxm4nYtMlrMNyZzKuoQJubS+jevfXut074WFmyJSUhU6m4yEPwIdRkCUi9xAcI+E/4tm1sqqz0GMAGNcGMP3TogOaJJwIiKWrp3r3BbTQ5bjfxs2bxQXEx/3jJNhoYGsrDSUk1OecBJnTPHnS5ucyrw2B2ZlkZEZs2tRlRpjbn0AGWGY18otGQ8MEH9c41lOflET13Lvfm5flcaqsLqhUrmFdR4XWAMDUmhh7duqGZOrVBfeluuIHwiy/mpfh4r8f9otejWrGiQX01hLJbb6VraioPeggIAyiw29lcUkLonj317ke5ejXrdDqvD5wzqT6+OqBKS6t3v3XCD2ENR2QkkV4GaWaXq8XqDLQ2wv7+m6U+hJ4ej42FoUNb7TJ5IFCtWkXRwYO87mUlUyYSMTM5mYqbbsIRFRVwG9RpaXyh1dYp/Xe3xcI6nQ7l6tUBt6c5aJMOHeDZoiLSs7OJ/f77Op8rsttJeP99Pi0u5s8Aq7aF7NnDHz5m59NiY9HdcENA+iu79Vbujooi0UtQ10KDAdmRI803ShWJqBgzhileHDrACpOJiM2b69eH241q5UqfwTK18ZVOh2TPnqbZa/Mj9kOq01HoxWGHiMW17tsK1BG3G0V6Oqu9KCvGSqVMjoyk/LqGlJBp3UgrKoj+6SceLijA5CVo+LHYWHp36UL51VcH3AaZRoNk3z6+qoek60yttmZC01JqFzSANuvQq1wu7srLI3jlyjrP6mK/+YbD2dlMLyoKrFEuFw6Nht1eRClGhIeToFYHTPLRlpgIXbpwo5codq3DwWGrFVkA4wTqimH4cDoqlfT3spS82Wwm+MiRerUfvm0bucXFHmV1O8vlHs8tstuZW16OeunSevUdSEL37kWn1/O3l1WGJJlMSFkLAEHFxdgdDg56SRMcGhaGODUVW1JSE1rWsoidPZtfNBqWelHO6yqX81JiYs2qYyMI1aiXLmVueTlFHlZkvd3fiwwGcoqLCd+2LeB2NTVt1qED/FNVxXNFRcTPnInET5nG8O3bka1Zwx25uT7zw8/Cxxc1qKSEvZWVXiVjR4aHU9W7d0A1jat69+YKH8Fxu6qqmtWhu+Ryqrt04UIvDv1AdTUSna5eI2l1WhqztFqPdbc/Tk6mu5dqZbO0WpQbNyJuZIUwb//v4spKYn74gTdLSrx+h7oFB2NvhCXNcw15Xh7p1dVeP+shYWHn9FJ76J492Ldt4ykfKX0fJydjGz2a6o4dA26D2GJBuXEjn3kIhgsXi/m1fXukHu4th9vNLK22Tei7t5k8dE98UFrK6IgIBn/yCQXPPef1WKlWS9xnn/HfwkL21ufB7UsgpqjIa24m1OSx2n3sedcVW3x8jbiFF/JtNmR+Roc2Fg6VivO8jKQNTidF1dVIjMY6LSnLs7OxZ2Qwx4MoSLfgYEZHRLDPYvG4KrOzqooNOh29Vq2i/Npr/e47EAQVFaE4eLAmQj893WcU72VhYW223nNTItXpPOb7n6CrXO5Xud/IhQsRN0A7XD9mDE4fg/KmRmSzEffllzxUVEShl2u7PTKSEe3bk91IAk2qlSvZqNN5XLWaoFZzYUgIo8LDPa4ifKfT8fLhw8izs7F26NAodjYFbd6hu4B78/LYqVCgWrnSs9Sf203iBx/wp0ZTpyjouhBUXOxTmCZeJsMWYIduj48n3ocwit7pRFZaGtB+64pTqUTpowZ5ucOBSqutk0OPXLKEOTodOg+Fb+6JisIRE8MddjsvFhd7FJyZVVbGzytWNKpDj1y4kMiFC097zeB0crC6mie0Wn4uL/caUHlJaCjxUVFknXdeo9l4riCurvZ5v0ZKpX4pGEYuWsSX+fmU1aP40tNxcRiHDGlxDj3m55/ZmpfHV16el3FSKTOSkii57z7cQUGNYodq5Uqvz+z7oqOxx8QwuaLCo0PXO53MKS/nziVLGk0+vClo8w4dIMdmY2pBAXN/+IHKPn1qnQFHLViANj2dBxtRkENaXk6lj1m8QiTCEeAqR/aYGIJEImQikcflwyqXC2mANOrru0fmDA8n1Me5RqeTaJ0OOnXyq01pRQWh27bxmYcbPkQs5s7ISEonTyZ29myu9yIJu9BgIL+4mPCtWwMml3sqjxUW8tQZKwQut9urjO+ZTI6KqinqEcAtm3MVcXW1z9KoaokEZ1iYX+19qdV6jZ/xxGOxsXU+p7EJPnaMkBUr+K+PnPO3k5IIvuQS9I2kxha+dSsFxcUs9BBoPCg0lP4hIeRMn84106aRJJN5XE34TKtlyrZtSCdNarL6DYGmTe+hn8qvej3faTQkfPzxWe8p0tNR//Ybd+XmeixfqhCLGeBlfxfw6cicKhXhPmagJpcr4KIgUoOBapfL615guFgcuC9xPXPFxVVVVPgjrVsHZ6Vatoxlej2HPAQ2TVCrUcbGUnn++RhGjuQuL4Mph9vNrEYUmqlyuTA4naf91MWZ9wgO5ra4OCrqIWwicDYiu91nCpTd7UbqJQq+TeJyET9zJu8WF3vdmhwVEcGkpCRK77mn0UxRL1vGZ1qtx2fbvVFRGC+7DFtSEvY+fbjdy/19uLqatPJyVMuXN5a5jU6bcuh9fewTTysspPDw4dNqRourqkj49FPeKinxmp7yWkKC16Apf7DHxnpV+ALItdmQBngvW1ZWRp6P/Tu1VIq9mWcCEpMJnQ+HrqqDnSK7HeXq1cz08nneFxVVI6krEmEYPpwrlUqvEbHflZfjTE9vcbXSg0QivkhJwXDLLdh9pP8J+IcjMpIwH4P0MocDaSNt0Z1GC0qpUi9dSs6xY7zhJYg2TCzm0+Rkym69tdG2CuTZ2TjT0/nWQ6parFTKRLX6pGS2YfhwJkdFeXV6M7ValKtWtdpa6W3KoT8QHc0oL/tZFU4nk/PyiPjjDxSZmQDEf/YZO3JzeaW42ON5V4SH+7fs5Ws0HxtLRx/7SLuqqgg5eNB3X3UgOD3dZ5Bfx6Ag7HFxAe23rsjz8sjwkiIEECmR1KTi+UHExo2k63Qs87BvNjA0lIEqFRUjRwLgjIjAcsEF3OllFK91OPi+vJzIJUv8sqEpEAOfpaRwUZ8+6MeObW5z2gz26GgifAzAD1ZXN3swaVMi1emInj+f/+bne80Cej4+nuSePTEcv7cag8glS/ihvNxjXMLtkZGIunQ5GVlvHjCADtHRXuWwVxiNHAqQzHRz0KYcuhj4JjWVBC8BYBvNZt48vvSuTkvDuW0bd+bmegyEipFKmZ2aCv7Mzn2M5u1xcfRWKFB4OW6JwUDIoUOBe0i43URs3uzRqZ3gwpCQZnXo4spK5FlZXldJYqRS4tRqvyufqdPSfM7OHWo1kUuWED1vHtHz5oHLxR1RUci8LOvPKisjbPPmFqGXrpJImNu+Pf8ZMIDCZ54R9s4DiD02lvY+BuDrTCZC9u1rUTPoxiT+88/5XqNhpZf79KKQEB5LSkIzZUqj2SGtqCBs82aPwXBiaoLhXMHBJ+/tqN9+w6lUcpePlM5ZWi3qplKGDDBtLiguUSbjy5QUrjl2zOMxr2k0XBEezsXff8/tBQVketFp/jg5GeXIkVhLS6GB1b6coaFIQ0IYEBLCBg/VgHZbLPxlMtFzxQrKbrutQf0BhBw6hEmv96pOlyST0VkuJyvA0fV1QbVyJZtMJo/CEAAXKBQ4YmL8ai9k/37MeXle61fn2+18sH8/7N9/1nspQUEey7oerK5mudHIwOXL0U6c6Jc9jcENKhVvJSYSN2wYea2woIf7uHytt8GT3e2uV7qX2Gr1WR5XCl4Hh/aYGPooFF6DSdOMRgx5eYTu3k3lhRfW2U6/aQEDtfDNm6navZtnvAhuSUUiPk1OxnTddX6vpNUH1fLlrDAa2e9h5TFRJqsJlFu7tubnFGxuN2LwGMz3U3k5/8vNJWT//hpNkFZEm3PoFaNHM3rnTh41m/nQQxqW3e1mcl4eD8XE8IOXB/4dkZHc0KULuXfdRdLbbwfEvsrzz+f63FyPDh3gFY2GlcuWYbzkkoblRLrdRP/0E++WlaH3sjd9k1qNtWtXXL6C/vyljlHukspKIhcv5lUf0qqXh4dT2aePX22q09KYqdV6DSp72cs2iy9mlpVx5Zo1TerQw8VieisUjAgP5yaVii49e1IxejTFl13WZDYEEpdcjjM0FKVEgtbDsukxmw1ZPRQbgwoLPQ7ITqCSSr3GGziVShQKBReGhLDdgyxylcvFOyUl/O+XX6jq1ctrataNajWDa4mIz6iu9roy1RIQV1YSO2cO9xUVUexlgPXfmBgu6NSJ3PHjG9Ue5Zo1XmWcC+x2nq6n0qfJ5eJrnY6Hli0THHpz4woOpuiRR3jz+efZZDazy4PYwOHqaqZ6SVHrLJfzUUoKmocf9r90qR8RyeXXXstNGzfyVFGRx1H/apOJ2aWl3PHee+S++26dSqeeSvS8eeQePsw7PhTgJqhU9Sr56BGXy2+nLnI6SXz3XX4oKGCNj4faTWo1FVdc4bNNmUaDfPduvqyHrrO/LDUaySgrI2rtWgzDhwekzefj47nujPx6ETWpdUqJhNiICFxRUVR37Ih+zBjyWrEAxgkcMTEkyGRkeXC+iw0G3ty9G6lWi6MOwX6qlSv5wUcdhnipFIOPbabK3r25Li/Po0MH+KisjHGHD9Pn008pmjat1mMsXbvyWLt2Z70u02r5PiOjxTv0mB9/ZGNREd94uac6yeW8kpBAyZQpuH3EHjQE5Zo1HCkrIy3AdTZO5Qutlsf/+QeZRhNwoa/GpM05dMRiqrt0oXLCBL7//nsuzsioU+oP1CwbzU5NxXnDDVi6dq1T376wduhAbM+eTCou9npzPFJQQDe5nP4vv0zh00/XLTfd7Sb611+R/P47N2dne82lHRkeTr/27ckeMMD/9n3hpzMXWywkfPwxm3fs4AEf+f8jwsNJGDiQQj8e6uq0NBZWVHh0EoFillbL+0uWBMyhp8hkdL3ySoyXX/7viyIRDqWSythYjjWSMEdzYo+Joa9CwV8eVqwOV1fzTVkZk957j7xXX/UrfkK5di1Vu3d7rWHeWS4nSqGg3IcojP6qq7hp82aeLyryuERrd7uZkJPD6k2bSLFYKH744bMiuwufeabWc6PnzfNvK68Z9+gVmZkEr13Lwz7u0Q+TknCNHFm3Z2Y9UC9dyutabcBKWtdGts3Gb3o9o9LSKJ08uRF7CixtKigOODlL1o0bR4c+fXgvObnOTTwVG8vAXr3Q3Xhjvfr2hf6qq3gmLo4gL/tiVS4X1xw7xsYDB2g3fbrf9bilej3Jb7yBY8ECRh09yj4f0e0vxcejv+aaJt+jC9+yhdQnn+TrlSu57tgxn/m+z8fHe1b5OwWxxYJywwZmNUHk8Q/l5VTm5xNSyx58fXFER1PVq9e/Pz17YktObjSVrebGHhfHUB/CLI8UFLDzwAGS3nrLZ00G9dKlqL/4gok5OV6Xhi8PC/OroIqle3eSu3fnFh/FbgpsNoYfOcK2LVto//jjhG3f7rPtOtFMe+gip5O4WbN4U6PhgJcMlP+o1YxJSaFs0qRGtSdk/36q8vP5PlAiWF6YpdWi3LCh8es3BJC2N0M/gUhE8bRp3D1tGqtNJo/qX2cyMDSUF1NTKXr00UZbNjIPHEi7zp15sryc173sG1c4nYzNyuJJk4nnXn+dmMREDFdeSWWfPthOGaiIKytRZGSgXL+esL//ZonBwJSCAp913O+OiuLidu3IPnVGGABC9u8/+wHkdhNUWIgiIwPFvn0sKyrig9JS1nmJJTjBdUoll3TsSPYFF/g8VrlmDbv0etb70W5DMTqdzNbpeLAV7rX5gzwvr8GVsVwhIV4LcpgHDODqRYtQSyQe4zyqXC6uP3aMz+12rs/Lo/y666i48srTBjlhO3eiXrwY3YEDXJ2b63P75ha1GvNFF/l1DfqrruLZQ4eYX1HhNdCuyG7niqNHuUuv57m336ZjbCymwYOpvPBCHCoVzogInBERSPV6JBUVBGk0KA4d8suG5nLokQsXkpWTwzteZKFjpFLeS0rCNHgwwVlZDe7TmprqUU5XvWwZX+h0PiV5A8FGs5kdej0d1qxB3wglXxuDtuvQqSn2UTx1Kp+99RY7q6p8BsmEi8V8m5qK4Y47Gn3fpHjaNJ6fPp1lRiP/eCmF6XC7ebOkhDnl5TxYWsqNOTl0O55CZ+3QAYnBcFJSNs1o5Eut1q/9uE5yOe8lJVH4xBMBm/25AI3djvTll/+1H9A7HOidTo5YrWyrrGS92cxRP5fDE2QyPktJofTuu/06XrVyJU95mZ0PCg0lTur/197kcnl1Dl9otTy2a1er22vzhdbhQPXttw16QASLxSg6dyb3zTc9HmPp2hV69eJBjcarUInW4eDG7GxuMxh4pKSEi378EVtCAm65HFlxMaVmM5/q9cwoKaHUh176oNBQhkZHkzNmjF/XYbrkEjouX85zFRW85COQ0gXM1umYU17OqPx8Rh05wsAFCzhPLj+tToHZ5SKzuppfzGb/ang3w5K7rKQE9Z9/MqGgAIuXFbQTGh3VixcjXby4QX1GSaVoH34Y0yWXnG2PRkPwrl187iUY7qqICK9ZE2eSY7Oxx8sMfGZZGV+vXCk49JZCZb9+hI4dyzcWCyOPHvVYPhPgraQkUgcNotCPwKuGYktIoPyhh5j7xhsMPXIEjY/UnCK7nReKi3mhuJh4mYzucjkRx45hc7vR2O0c8FHm8VRUEgm/tm9P9YMPBrSyUJHdTsKBAwFrL0gk4pvUVKSTJ6Pv29fn8WF//42usJBfPaToKcRi/uzYkfCuXf0exEgPH6bDwYMe9Z+PWq38YTAwYvlySu+80682WwOX1rPu/KncqFLxY+fOPo/TjRvHE/v38215uddlcoAfy8v5sbycJJmMLkeOIBWJKLTbyaiu9mtPVQy8npiIYcwYnKGh/l0IUPT44zxVWspak8lrhsoJHG43S43G04qBBIlEhIrFVLvdXh1kSyH+iy/4TqPxudrxbFERz9YzovxMNnXpQicPDlm9fDmLDAaOeJgMDAgJYUmnTli6dfOrL7HVSvqhQ5yfnu7xmHkVFbxZWEjY339jDmScUSPR5h06QNmkSQw6cIDnzWaPqUrXKJXc36EDOVOnNpld5v79iRk3jt/mz2f00aN+B+9p7HafAwBPBIvF/NqhA52vuoqSAAVzNQZi4Nt27bhkzBiK/YzAV6el8a5O5/FhebNKhTo2lmOvv+73EmbSO+8wqbiYt7zMHmeWlTFu/Xq0t9yCy4tsrEDtVPXujWrgQD43m7nOi37EqRTa7V5LdnrisdhYhnTsSO4119TpPIdKRenTT/PbU09xxdGj9SqyYnO7sTXBUnEgUK5bh2nfPq85541GLRMTscWCct06r1XV7o+OxnjppWj8fIaLnE56PfAAl+Tns9lDFkO1y8UXWi3Tly1rFQ697QXF1YJbKqXo8cd5LjWVy2sJwEk4LkajmTrV78pJgUJ7661c2LcvKzp39qpwFwhipFKWduzI0N69G7VgQkOJkEj4tUMHxg8c6LfalDw7G/Hhw3zpo4yifsyYOu1HGkaMYLIPZal1ZjO7y8tRrl7td7sCp1P88MOM7tmT1xISGq2Pq5VK/tepE4XTp+Oqw+z8BNUdO2J/+GGWdurExfU4v7UgMZmI+f57nigs9Ll90VQo16xhb0WFx+3EmOO67XWRPnZLJBgvvdSnctxXOh2igwcJKiiok83NwTnh0AFsiYno7rqL79q1I/qMPdTPUlJQjBlDZSOV+POGWyKh4Lnn6D18OBu6dPFd0a2eXBgSwvouXRgwbBj5L77YqHmiDeEChYJNXbpw5XXXUfDMM37bqU5L41e93uOsrX9ICIMiIzGMGFEne8wXXkiHuDiu8FFgYqZWi2rFinNGAjTQuIOCKJg+nWc6deKlRohFuF6pZF6HDmiffLJBCmbGyy7D/dRTrDr/fJ8DvUBwvVKJQiTC1YRZDrHffcea0lKvoltNitvtU8Z5UmQk4m7d6ryFaBg5kglqtdeiWcV2O3P1eiL//LNObTcHbc+he4nKNQwbRuTQocw8JUL8/uhoxpx3HqW3396ofXvDpVBQ9NhjhD/2GBv79OHlhASveu91IVgs5oX4eDb36UPUI49Q9MQTgVOECyAnImW39u9P1Msvo3nwQb8FdSQmE+FbtvhejhsypO7XLhJhHDbM5yj+F70eXWEhYTt31q19gZM4oqPJe/11pg8ZwrwOHYitQ/CiJ4LFYl5JSODXiy5C+9JLVPXs2eA2zQMHUvr++3x8zTWkdepEjwZWYayNTnI537Vrx/zzz6f4+efrJKrTEEIOHkS6aRMPt6DZaNiOHZSXlvKzh0ylE7rt+lGj6ty2LTERSY8ePtMSZ2m1hG/bhqSFCwC1PYfuY4ZUct99jOvalfuio+kRHMyMpCSKH3mkReT5Gi+7jKJ33uGpyy8nvXt3pkRHE1xPxx4sFvNAdDTp3bvzzOWXU/zOOxiGDQuwxQ3nwpAQZqakkN2zJ/dddRUF771HpR/paaeiWraMvwwGj2pe0ceX48rruG96goorr2S8Wk28ly0Ri8vFVzod6kaqlX6uYI+PJ++11xh+333s79WLKdHRhNTjHhAD41Qq/jnvPB69+Wby3nsPS48eAbPToVJR+Mwz9Hv4Yf7p04dv27Vr8OqaGBgdEcEv7dtzuHt3xo0bR+577zVZSqTIbifu8895vaSEdB9VD5sS9bJlfK3TeazuNioigs4xMZgGD65X+4Zhw3yutuysqmKDXt/ia6WfE0Fxp+JSKCh+5BHef/ZZsqxWqv/zn4BGejcUe1wc+S+/jDw7mzdXrODV1av53WBgYUUF2yorvWqyqyUSBoaGMk6pZLxKRdDw4VSMHk2+lzzgpkBMzb64SiIhJSiI7sHBnK9QMDoigqQOHWoCWYYNw3mG7Km/qFav9jo7nxQZiahPn3qnlTnUapx9+nBrYSHvecnH/VKr5amDB5Hn5WFNTa1XXwKAWIxu/HiC+/blnXnzeHHXLubodKQZjWyprPSazXGBQsGYiAgmRUbSvmdPyseNQ+Nnvnl9qBg9GtOQIYzZvp2bt2whfccOVphMrDIa+cdi8Zkv3S4oiEGhoVwRHs7oiAgSZTKMQ4ZQPHas1/z9xiB63jwy8vO9fsebGnleHtJDh3zGxlSMHl3vXH3j0KFc+P33DCwo8CrxO7OsjF9WrUJ300316qcpaHUOfb4P51vuxx5mdefOGKdNI7G4mPLrr/e77+/ateO7WvSYT2AN4P6ptUMHNA88gGTSJMatXs2dq1cjLSvjiNVKttVKhdNJpctFqFiMSiKhvVxOF7kcZ0wMhpEjMYwcWae0HH95OCaGh/2seHYqzoiIGnENpRKHWo0jKgpzv37k+JHW5I2I9euRGI3Mbd+eue3bezyuyM+cY08YRoxgxr59zPBDXUy9dCmaBx+s9b0yH7Otptq1PF+hwF3HlZD60BDx3epOnSh85hmkFRXcvXYtj61fj0Oj4VB1NXk2G0aXC5fbTbhEQoJMRq/gYMJUKoxDhmAYOZI8P/6vAoEzLAzDiBEYRoxAVVHBPVu28MiuXciKiynSaMiyWjE4nZhdLuxuNyqJhCiplB7BwURFRFDdqRPW1FSs7duT1bevR1GVxkSem4t68WLUwcFY/EgRbUyKT3HM6iVLkIlE5PjYKslqYKqx8ZJL2ObFmf97oJGIDRswDh3aoP4aC1FGRoYQxdNKkBiNSMvLkep0Nb9NJpzh4dgjIxEdnwm4QkJwi8XYY2NxREXVOmoNKixEqtfjjIg4ayYpMZmQFRfjiI3FoVJ5tEVktyPPy8OlUGCLj/caPyArKUFiMmFt1+4sLW6pXk9QYSFQ8wA/dd9cZLejOK5zbY+Lwx4Tc9L22nAqlVhTUk47D2r2yeqkhe+BQF0zgLiqCuXatTVFcWpR1Qs5eBAAa7t2J3XB1UuXYrzssrN0wgGCjx1DXFWFPTr65EpEcGYmYg9qgZ4+E3FlJUGFhTiiomq+P8cJKi5G6kEAxRUcTHUDB2a+kFZUEFRQgLiqCqnBgLSiokYG1unEoVZT2bcvjujo064pqKgIeW4upkGDPLYHgEhEdceOfsdsnDjXLZX6lfMcVFREUFERiowM3G439qQk7FFR2JKTPX8vjysrim02rCkpHjXsRU4n6sWLa52YnHofVHfujKsR9voFWhatboZ+LnNCOtJay0w0+MMPeX7RItxBQUhFIhIcDi5Uq7n4wQepOmPvXDx/Ps/99hvPXnEFohdfrHnR7Ub6+ef8/OuvZFqtxEmlXN6lC32nTKHqlCVLmUaD/rPPmLdhA4eBCOAiuZwbRo2i+pRANpHTScjvv7Psp59Yr9NhEovpJRYzYdgwIu67r8YhAuLqatZPm8ZfTievPPIIhmuvPdlX+PbtfPDqq6S63Vz34YfYY2IQz5/Ps8ev81REdjsvDB8Ozz2HxGhkxRNPsB4QiUSoqqsZlJjIZVOnUlmPfbZAXzPU5NUu/PBDxh49StUjj5zu1N1utj/xBAddLu5+++2TMQXbf/qJ+CVLUM+Ycdbqi/ajj/jon3949957qTge4Jnzv//xlUZz1sBDbbfz/NNPn6aNH7p3L/tmzWLxoUPkSyQkulxcHh3N8IkTMdx8M/LFi3l67lzcZ+bZu1w8mJJC9OzZPj/HqAUL+OzTT0kMCmLo/Pk4lUok99/PhwcP8uT991N9ig548Hff8e7XX3NvaiqKH34gZO9e3n/tNYrPDJRzu7lDqSS1lmVQ688/s3TtWq7888+zHOKp7YmBeKuVURdcQOcpU3wOTkL27uX9V19lpFpN+wULvB4rz86m9PPP+XXbNjJFItROJ1fGxzPsrrtw1LJaI7ZYEH/3HQsWLmSn1YpLLKYXcPOAAYROnXrWADz8r7/4+IMPuKdHD6rPKIpy4j6ocru59quvhG2gc4C2FxR3jlJlt/NDYSH2igrkRiPpNhv3Hj7MqCefRP/WW2cd+31pKYZTFJeCfvuNsV99RZrLRdfwcMwhIUzdtQvdzz+fPEael8eae+7hkgULWGGz0VUiQSGR8HZJCcs3bPjXybrdOJ9+mqvff58XcnIIUyjoJpWyweHg4l9/ZfU99xB8XInMlpBAUo8efFFQwM55806zs3jRIt7JzSU+NvZkdPKp1xlqMp38Camu5tR57nabje2lpYQYjehcLu7ft4+Hp0+vcxR6Y1zzieP/sVj4zw8/EPrpp6d3KhKxv7qalWeIl5Tb7Vy3aRPGJ588q2BEidXK96WluE7Z9smxWPi9sPC0zynUZCL4jFl7+Nq1vPTYY4xdv54sqZSeIhFGmYz70tMpPq41LhKJCLHZCDWZOFxayqbS0pr2KisR+7l3aRgxgkqxmOd0OkI2bqzpe+xY0iwWVi5YcFpA67pFi/jRaCRqxIiTqYuLjEbyy8pOvx6zmdoSjiQmE78sW8as4mLCN2yo1Z4T7SlMJg46nVyRlsZvjzyC1I90rUUmE5k+xGVCd+/m1ylTuGTRIvaKRPQQixErFDyckcHEN95A9tprpx0vstnQTJnCpV9/zUdaLdFyOSkiEQstFt7ZtAl3LStCe3/8kTdLSjB7GFhst9n4y0dNB4G2gzBDb2NMGzEC1euvE5yZiWjJEh6aP5/b5s9nVadO2LwEc/yzdClZFgvrJ03C/MADuKVSXl6xAmvXrpyId8196y2mZGXxeGIij993H6YRIxBXVvLK4sUQG4vp+IM39M8/ufavv4iSSFhy6624rrkGe2wsT2zbxh8zZ/JgVhaLX32VjnPmgFjMebfeyoCdO/k+P58ZmZlYunZFWl7O3B076KhUMvi22zgzWeTEdZ7KmTGwFyiVPDNnDs7QUP7z5JNcvXkzD82ZQ1IdgqQa65oRiXDJ5WzSapk0dy4/ymSYH3jgZL+eXGSR3c41W7eSNn06ihkz/p15enCq4TIZr77wQk3Q0CmcEMeVmEz8+O67/KDRsLBXLwZNnYr5oouQ5+by7vz5cNNNVAHGe+9l2r33IrZY+HLsWPa6XDz3+edYunf3+7N0qNVM7N+ft/74gx0LF9LtmmswDRvGpE8+4TutlrE7d2Lu3x9FejoLdDpujozEfkYq0o3x8Vy5dKnPvkJWr2Z2WRkau52dP/5I15Ejaz3uRHuKzEw+nzqVl/PymLhiBaZbbvH7umpDbLWy4bXXeD4nh7nduzNk6lTM/fsjz83lxfnzmbhqFfesWMGPl1+O6bLLAJD99BO37dtHz+Bgvhs/Hsd11+GIjOTZ9euxpqdTdUblyOCsLL49eBCRSMSPa9Zw90MPNcv+u0DLQZiht1Gqu3bFMm0an911FyankyXffee1vGuIVIrD5WLbrl2Eb92KWyrFcPXVJ5fxgrOy+OzQIfqr1fz3lVconzABe3Q01nbtMD30EKabb65pyOVi1XffkWE289lNN1H55JNYunXDERmJfuxYRn38Mf+JieHVY8cI37EDAPNFF3FfTAx/lJVhWbIEAMW6dfxkMHCvWs3/2bvT6KiqdI3j/5NKKqlKFRmBkECjyOAACiiioqg4hEEggIKsRlQUVK5TFFH02gra2qCASkurC6+0BkRBBBQbwRjUbrkQFGXSMAsGyERCUpWhUlXnfsjQmcFWXHru81srH1I5qey9q1aeOufs/W7vzyxR64+L44KrrybEMDjSwmzZhk5ln2v0j4sj2+/n5rfewrVoUdWDhtHsWW98RAQXtGrFsC++oOLxxzGqK3nVHv8TJ2a60tN5KSeH1HbtOG/+fI4PGECgVStKe/SgdMaMX2Tddl1tUlLo36YNSw8cqJo7ERKCw2bjX/n5ZC9dCoB/7Vo+ycvjxjPPrLer4EkzTT5NS6NVaCg3JySwYM8eHC3U64aqTWL6de5Msc+H5xeY5e3OyGDGjz9yb0ICvefP5/hVV9WOa+X06bx25ZV8fuwYmdW3Kgy/n4+WLaOgooJXxozB8+CDlHfuXPUeGjmS0kcfbfQ3Spct44PCQmYkJPBGQQGO3/iSKjn1FOgW5xs8mKtjY/nC68XeQl3m88aPZ2JiIiMyM5n02GMcGDuWyC1ban8efuAAG0tLSXG78TSxE1KNsLw8Pisu5oq4OMKbWPddfsYZjOjUiQ35+QSqJ35hGAwcO5bo8HCWr1mDUVnJP5cto6iiguuHDm2yPvq7n3/OiiuvrP3aM3gwYU38I47Ys4fotWv58O23CZom3bp1a2G06julfa6WEBHBuvbt+cHn4/a//Q3X8uVVQ9JMMNsMg3cTEujhcpGybh2VTzyBEQhg1FyObfBBoNTvZ+HMmfXGqrTOJjK5O3bwo9fLoF69qGzb9iRG5efxXHgh46OiWJmXhy09HfeXX5J27BhRoaG8vXkzYUePsu7jj+kUGcnZo0Y1+v31+fn1+pJx9dVEZWTUO8b11VcsOHiQ22NimOBysTo/n+PVHxYaMoJBnNu2EbtoEcu/+46Objfuk9zcoyW5X39N1vHjXNe7d+PlkoZB65EjOT8ujn8dPIjh8xGWn8+m8nKuiI8n9CR29rKVlPD22rUkx8RwX+vW+E2TtYsWqVLh/3MKdIsLRkbiAooBWwvLMkouu4zpzz7L2ssuI8JmY8i33zJ1yhScGzYAVZPXPD4frvDwFtd7hpSVUUrVVrTNzap1Vk/oKjt+vPax8kGDuDU2ljeKimi9cCFvZWczuk0bQq+/vsnnyPD7WVVZWfu1pYkdmDIKCxn++OP0/9OfuH3XLh7u0IHW48Y12/ZGfTnFfQYwTRNz9mxWDhzI7vJy7pw7l8gPP8Ro5u+ZwPFbbuGVBx6gm9PJiI8/xnzqKYxmrr5UBIP1xmmVz8ehOkVDSqt3Dov8lfYwMG02rh0+HAPIeP99dr7/PkfKynghKYnFBQXEzZnDO0VF3BQdTclll9X/ZcNgayBQrz+fNFEA5dCSJWz2erm+Xz/OGjWKc2JieCsjo2pWfIPnm5uXx/V33sl5c+eyOC+P5zt1wnPppT+7n+UnGNegw4HLZsMTEoLN68UoL8drmrgN46Rmozs+/pjX8/KYkJjI8cmTGRsXx6t5ebg3bfrZbZffL91Dtzjn9u1sqaigj91OZfW+xc0puegiOl50ETMPH+a2adMYsmkTQ196id4XX4w/NpYzWrXiW4+Hgbm5zT6XPz6ebiEhLC4uxrF1K74Ga4FtXi/f7tlDW6eT6D/8gZoFaAG3m3EDBjA7LY2VS5eyJi+P9OTkejPD63rtooto22CP9LIG5Rs72O2MDg9nc2Ul+RERTO7f/yctrzrVfQaqPijYbIQ++SQrTJNha9Zw/6xZdD9BdTRvSgqvAhNnzyZl9WqebGb5U4zdzocTJtTbKcq026mZztWuQwfsNhvff/cdfQOBX6XGf2DIEK5PS+PdwkLaHzvGTfHxDLrlFh6dOZM3vvqKL48d4+VhwxoHm2lyX+vWDH/uuXoPe+tclrcfPsz/bN6MKzycqRs3wsaN+IJBFhYWcu/q1Xjr3hs3TXrbbFwcHs4S06Sb3c7l48dT+AvUb0g67TQcoaFs/eYb+vv9mA1m59u+/pqtxcWktG2LPzoa02bjDMNgVWkpEbt2tVxvPhjkk8WLya6oIK24mMXPPsthv5//LShg1+LFtOvb92e3X36fdIZuYRF797Jm1iw2FxQwukcP/C3UK47KyKg9g/clJtJz3DhaOxwcqV7z7e3Zk3EuF4vz8yl67jmMOpughBYW4q4+kw+4XIy+4AKyvV7efPllwg8dqj3OCATwz53LnPx87mjdGk+D4gxRN9zAkDZtuCc7mz7R0ZzRwsSkgNNJaffu9b4aLk3qHBnJqIULeX7SJOLCw5meno5z27aTHL1fp8+maYJpYtps2KdPZ+WgQXzl9fJiM/f6a44HKE1J4bXUVNqHh3NHze2UJi65+hIT641TWZ3lTSH9+5PSti3PHzqEs+YefjXH998TsXfvSY/XyfIlJjL2zDNZm5PDsoICxg8YgGfYMG6Kj2fa4cNcHRODq5nLzmZISKPXvV69hJUrWZKXx61uNz19Pnr6fNzsdFLi87FmyZLaeg01+sfHM+TTT5l//vlsKCpi9SuvND6T/w/4r7iCPyYk8OzRo9jmz6/3ukTs3s28tDQCwSBDk5PBMAi0asWoHj3Yffw4//jrXwmt8/obfj/R69bVfu/KzGRBdjZjY2PpXVlJT5+PwTYb50RHs/Cbb34Xu4LJqaEzdIvZvm0bSZMnU1Bayj+ys1l86BBPduzIH6ZOpbnFK2G5ubz+1FOUGwbXDB9Oa6eTBStWkFNaSp/qWcxBh4MRqal89MwzDEpP55Fx47g4IYHSQICMnTs5Ny6O85YswbTZiLz/fl7IyuLu779n1803M6ZLF6IcDr7ev58/Z2dzltvNHXfdhafBhhNlXbsy8fTTWXn0KBPbtcPTp88J+1lXl9NOwz91aqNjvWPH8uLatQzJzGTMzJmc/ve/Y9psBF5+mdzdu0n6y1+avMz5a/QZw6j9Z2/abITXnKmfZE34spEjWQDcOmcOnzaxG1VlMMjWRYsIrFpV7/Hu116LNyWF0u7deTo5meTlyxn26qukrl/PWVFR5Hq9vLNtGw9fdx22xx47qbacaDzr6jF6NJ23bKGzYRA/ZgxlLhdjLr+cWYsW8ccOHZqdjLevpIT9DV73dg4HkU8+iWm3s3zFCrpGRnLf9Om1exc4du1i26RJvJqXx+BNm5osNBM3bRoPZWXxyI8/smHBAgIPPHDC/jbVli6dOuGfMoXyrl15fPRoMt98k+S0NB7JyOC8jh05VlbGm7t28V5eHm+fey7+OleZ2qSm8sSePdyxcyf33XorQzp2JMJm4+v9+ykoLuams8/Gl5TEgSVL2FxSwhsTJhCYMgWoqsMQNXw4qT/8wH+//z7cc0/t8+b7fOyaMaPejm2JDgeOGTMI27yZra+9RvfZs//j0sjy26FAt5jbsrIgK4tYh4NesbEsu/xyej3xRIuX8GweD33atmXW7t08O38+ftMkyenk9S5d6JCaWlu+03PNNSwoL2fhiy8yb+9eUr/5hlDD4JyoKHpHRRF29Ci+pCQqExIY+OKLrH7wQf585AjJn31G0DRp73QyKTaW2+6+G8+IEU225fxx47hy+3auvfFGPC1cdq7pZ11pPXtS8xHA8Ptr7yuboaGc89hjjL/rLh7YsYO1772H54Yb+PKDD1jj9fJCVhbeZspdnso+G35/1cqDOvfLTZsNx/TprDRNnklPb9ygJu6Vl48cyRvBIBMa1BsAOFZRwTVN3FfN6tLl39889BDpwSCz1q3jnsxMinw+nDYbl8bE4Dt4EIdp1mujEQzWu1pR1XDzpMazRkm/foyPjKR7XBxl1RMV24waxQ2rV9N/1Cg8TfyOEQgwNyeHuTk59R7/rzZteCAQwLV+PQtyc7k3MZHiOvfBy7p2Zfxpp5G8YQPfL1pEUnWgG3X2+vYlJnLnxIksnzWLGUuXMmPIkNp2NaW5tiwpKqKmoG75pEmsNk3mvvMOj+7bR+7OnYSFhHBVfDzpF15IwqxZ+OssM6vo2JFbZs6k27RpPF9QwJzduwmaJh0jI5kUE0PEvn1gmizcuJGRcXGEpaRQc73BDAtj8PDhPDxvHu+uXMkNt99e28dP8/P59Isv6rXzvrZtuScQIH/VKlJ37uSfn3xC5U+YXyK/TSr9ahGuzEwi9u+v/d4fHU3ZWWdR0aFDs8dWJCVRUj172wgEcOzYgbFjB97ycqLj4/H069dkaUr7kSO4Nm6ktKSE0JAQ6NoVb69eje4ThpSV4f7yS4I5OZRVVhLldlPSt2+je8x1GT4f7okT8c6b1+Sa2ob9rCvgdlM4aBAhpaXEVi9/K0xOrt30pdX69dhzcwna7RxLScG1cSNhubkUXnfdCTd2+KX73Fwba8chEMAxfz7BgQMprw7fmI8+wubx4OnVq/axem1cvpwIl4vi6gpwNcc3pbxTJzwN1uM7vvsO57ZtFJWV4XY6qejRo1FpU8PvJ656Jv7xAQOorHPF4aeMJ4B9zhzCzz2XkjprxKMnT8bz9NON3nfhBw60OOHr2NChuDZtwp6TU7WssMF9ZOf27Tiri+QUjBiBPTsb96ZNte8FAIJB4laswPD78TX4UHCybfG3atVozX/E3r1EbtlCkdeLy27HTEyk5JJLmi3naispwb1hA4H8fCr8fhxJSXj69iXgcuHYuZPI7dsJOJ1V41xHWG4uUevXA1B8ySX4Y2Nr32NNjtnw4YQdPowrM5OigQO1ht0CFOjym+PIymrx7EisIWLfPirat69Xxjdi9+4mP6yIyIkp0EVERCxAs9xFREQsQIEuIiJiAQp0ERERC1Cgi4iIWIACXURExAIU6CIiIhagQBcREbEABbqIiIgFKNBFREQsQIEuIiJiAQp0ERERC1Cgi4iIWIACXURExAIU6CIiIhagQBcREbEABbqIiIgFKNBFREQsQIEuIiJiAQp0ERERC1Cgi4iIWIACXURExAIU6CIiIhagQBcREbEABbqIiIgFKNBFREQsQIEuIiJiAQp0ERERC1Cgi4iIWIACXURExAIU6CIiIhagQBcREbEABbqIiIgFKNBFREQsQIEuIiJiAQp0ERERC1Cgi4iIWIACXURExAIU6CIiIhagQBcREbEABbqIiIgFKNBFREQsQIEuIiJiAQp0ERERC1Cgi4iIWIACXURExAIU6CIiIhagQBcREbEABbqIiIgFKNBFREQsQIEuIiJiAQp0ERERC1Cgi4iIWIACXURExAIU6CIiIhbwfwAAAP//7dWBDAAAAMAgf+t7fCWR0AFgQOgAMCB0ABgQOgAMCB0ABoQOAANCB4ABoQPAgNABYEDoADAgdAAYEDoADAgdAAaEDgADQgeAAaEDwIDQAWBA6AAwIHQAGBA6AAwIHQAGhA4AA0IHgAGhA8CA0AFgQOgAMCB0ABgQOgAMCB0ABoQOAANCB4ABoQPAgNABYEDoADAgdAAYEDoADAgdAAaEDgADQgeAAaEDwIDQAWBA6AAwIHQAGBA6AAwIHQAGhA4AA0IHgAGhA8CA0AFgQOgAMCB0ABgQOgAMCB0ABoQOAANCB4ABoQPAgNABYEDoADAgdAAYEDoADAgdAAaEDgADQgeAAaEDwIDQAWBA6AAwIHQAGBA6AAwIHQAGhA4AA0IHgAGhA8CA0AFgQOgAMCB0ABgQOgAMCB0ABoQOAANCB4ABoQPAgNABYEDoADAgdAAYEDoADAgdAAaEDgADQgeAAaEDwIDQAWBA6AAwIHQAGBA6AAwIHQAGhA4AA0IHgAGhA8CA0AFgQOgAMCB0ABgQOgAMCB0ABoQOAANCB4ABoQPAgNABYEDoADAgdAAYEDoADAgdAAaEDgADQgeAAaEDwIDQAWBA6AAwIHQAGBA6AAwIHQAGhA4AA0IHgAGhA8CA0AFgQOgAMCB0ABgQOgAMCB0ABoQOAANCB4ABoQPAgNABYEDoADAgdAAYEDoADAgdAAaEDgADQgeAAaEDwIDQAWBA6AAwIHQAGBA6AAwIHQAGhA4AA0IHgAGhA8CA0AFgQOgAMCB0ABgQOgAMCB0ABoQOAANCB4ABoQPAgNABYEDoADAgdAAYEDoADAgdAAaEDgADQgeAAaEDwIDQAWBA6AAwIHQAGBA6AAwIHQAGhA4AA0IHgIEAHhbtu6BfUfsAAAAASUVORK5CYII=;clipPath=inset(30% 0% 36.67% 0.33%);" vertex="1" parent="1">
          <mxGeometry x="53.86" y="264" width="897" height="300" as="geometry" />
        </mxCell>
        <mxCell id="o_0AbeNSkVmtxBrjeSQZ-35" value="" style="rounded=0;whiteSpace=wrap;html=1;" vertex="1" parent="1">
          <mxGeometry x="38.82" y="564" width="921.18" height="350" as="geometry" />
        </mxCell>
        <mxCell id="o_0AbeNSkVmtxBrjeSQZ-36" value="" style="rounded=0;whiteSpace=wrap;html=1;" vertex="1" parent="1">
          <mxGeometry x="37.64" y="930" width="921.18" height="350" as="geometry" />
        </mxCell>
        <mxCell id="o_0AbeNSkVmtxBrjeSQZ-39" value="" style="rounded=0;whiteSpace=wrap;html=1;" vertex="1" parent="1">
          <mxGeometry x="37.64" y="1300" width="921.18" height="350" as="geometry" />
        </mxCell>
        <mxCell id="o_0AbeNSkVmtxBrjeSQZ-40" value="Composure" style="rounded=1;whiteSpace=wrap;html=1;" vertex="1" parent="1">
          <mxGeometry x="252.36" y="580" width="500" height="30" as="geometry" />
        </mxCell>
        <mxCell id="o_0AbeNSkVmtxBrjeSQZ-41" value="Mafia Culture" style="rounded=1;whiteSpace=wrap;html=1;" vertex="1" parent="1">
          <mxGeometry x="247.64000000000001" y="940" width="500" height="30" as="geometry" />
        </mxCell>
        <mxCell id="o_0AbeNSkVmtxBrjeSQZ-42" value="FreakSinz" style="rounded=1;whiteSpace=wrap;html=1;" vertex="1" parent="1">
          <mxGeometry x="252.35999999999999" y="1310" width="500" height="30" as="geometry" />
        </mxCell>
        <mxCell id="o_0AbeNSkVmtxBrjeSQZ-43" value="" style="shape=process;whiteSpace=wrap;html=1;backgroundOutline=1;" vertex="1" parent="1">
          <mxGeometry x="50" y="630" width="900" height="260" as="geometry" />
        </mxCell>
        <mxCell id="o_0AbeNSkVmtxBrjeSQZ-44" value="" style="shape=process;whiteSpace=wrap;html=1;backgroundOutline=1;" vertex="1" parent="1">
          <mxGeometry x="47.64" y="981" width="900" height="260" as="geometry" />
        </mxCell>
        <mxCell id="o_0AbeNSkVmtxBrjeSQZ-45" value="" style="shape=process;whiteSpace=wrap;html=1;backgroundOutline=1;" vertex="1" parent="1">
          <mxGeometry x="47.64" y="1360" width="900" height="260" as="geometry" />
        </mxCell>
        <mxCell id="o_0AbeNSkVmtxBrjeSQZ-47" value="" style="shape=image;html=1;verticalAlign=top;verticalLabelPosition=bottom;labelBackgroundColor=#ffffff;imageAspect=0;aspect=fixed;image=https://cdn4.iconfinder.com/data/icons/evil-icons-user-interface/64/arrow_right2-128.png" vertex="1" parent="1">
          <mxGeometry x="847.46" y="699" width="128" height="128" as="geometry" />
        </mxCell>
        <mxCell id="o_0AbeNSkVmtxBrjeSQZ-48" value="" style="shape=image;html=1;verticalAlign=top;verticalLabelPosition=bottom;labelBackgroundColor=#ffffff;imageAspect=0;aspect=fixed;image=https://cdn4.iconfinder.com/data/icons/evil-icons-user-interface/64/arrow_right2-128.png" vertex="1" parent="1">
          <mxGeometry x="847.46" y="1047" width="128" height="128" as="geometry" />
        </mxCell>
        <mxCell id="o_0AbeNSkVmtxBrjeSQZ-49" value="" style="shape=image;html=1;verticalAlign=top;verticalLabelPosition=bottom;labelBackgroundColor=#ffffff;imageAspect=0;aspect=fixed;image=https://cdn4.iconfinder.com/data/icons/evil-icons-user-interface/64/arrow_right2-128.png" vertex="1" parent="1">
          <mxGeometry x="842.1800000000001" y="1420" width="128" height="128" as="geometry" />
        </mxCell>
        <mxCell id="o_0AbeNSkVmtxBrjeSQZ-50" value="" style="shape=image;html=1;verticalAlign=top;verticalLabelPosition=bottom;labelBackgroundColor=#ffffff;imageAspect=0;aspect=fixed;image=https://cdn4.iconfinder.com/data/icons/evil-icons-user-interface/64/arrow_left2-128.png" vertex="1" parent="1">
          <mxGeometry x="33.05000000000001" y="710" width="128" height="128" as="geometry" />
        </mxCell>
        <mxCell id="o_0AbeNSkVmtxBrjeSQZ-51" value="" style="shape=image;html=1;verticalAlign=top;verticalLabelPosition=bottom;labelBackgroundColor=#ffffff;imageAspect=0;aspect=fixed;image=https://cdn4.iconfinder.com/data/icons/evil-icons-user-interface/64/arrow_left2-128.png" vertex="1" parent="1">
          <mxGeometry x="28.46000000000001" y="1040" width="128" height="128" as="geometry" />
        </mxCell>
        <mxCell id="o_0AbeNSkVmtxBrjeSQZ-52" value="" style="shape=image;html=1;verticalAlign=top;verticalLabelPosition=bottom;labelBackgroundColor=#ffffff;imageAspect=0;aspect=fixed;image=https://cdn4.iconfinder.com/data/icons/evil-icons-user-interface/64/arrow_left2-128.png" vertex="1" parent="1">
          <mxGeometry x="33.05000000000001" y="1426" width="128" height="128" as="geometry" />
        </mxCell>
        <mxCell id="o_0AbeNSkVmtxBrjeSQZ-53" value="Add Your Brand" style="rounded=0;whiteSpace=wrap;html=1;" vertex="1" parent="1">
          <mxGeometry x="766.4599999999999" y="125" width="90" height="30" as="geometry" />
        </mxCell>
      </root>
    </mxGraphModel>
  </diagram>
</mxfile>
